<?xml version="1.0" encoding="utf-8"?>
<svg xmlns="http://www.w3.org/2000/svg" xmlns:xlink="http://www.w3.org/1999/xlink" viewBox="0 0 612 612" xml:space="preserve">
<g>
	<g>
		<g>
			<path fill="#068A9E" d="M534.372,397.104l2.28-20.572c0,0-202.912-23.631-239.468,22.647
				c-19.07,24.14-27.837,61.93-31.908,92.693c6.924-20.93,16.145-40.642,28.465-56.232
				C325.459,395.466,447.236,393.145,534.372,397.104z"/>
		</g>
		<g>
			<path fill="#068A9E" d="M292.081,453.01c-11.789,14.92-21.064,33.226-28.409,52.874c-2.06,21.2-1.924,36.479-1.924,36.479
				l169.288,66.494c37.83,9.347,76.097-13.737,85.443-51.56l16.646-149.112C438.62,405.847,324.346,412.176,292.081,453.01z"/>
		</g>
	</g>
	<g>
		<path fill="#023550" d="M212.258,296.216c-23.767-18.759-60.778-27.567-91.269-31.717c20.301,6.852,39.403,15.914,54.577,27.886
			c40.213,31.771,42.48,153.843,38.513,241.012l20.802,2.305C234.88,535.702,258.513,332.772,212.258,296.216z"/>
		<path fill="#023550" d="M318.265,176.354c-31.74,40.158-153.501,42.471-240.63,38.544l-2.313,20.556
			c0,0,202.889,23.64,239.5-22.639c19.047-24.117,27.847-61.907,31.901-92.653C339.782,141.084,330.577,160.79,318.265,176.354z"/>
		<path fill="#023550" d="M399.755,315.771c23.754,18.789,60.795,27.59,91.287,31.729c-20.316-6.865-39.419-15.904-54.625-27.907
			c-40.189-31.756-42.438-153.803-38.481-240.987l-20.817-2.33C377.118,76.277,353.486,279.222,399.755,315.771z"/>
		<path fill="#023550" d="M2.573,430.084c-9.333,37.846,13.719,76.08,51.548,85.461l148.765,16.596
			c2.385-94.619-3.895-209.265-44.793-241.568c-14.451-11.431-32.066-20.484-50.983-27.719c-22.02-2.217-38.044-2.09-38.044-2.09
			L2.573,430.084z"/>
		<path fill="#023550" d="M180.939,3.147c-37.806-9.355-76.072,13.736-85.419,51.541L78.859,203.817
			c94.505,2.337,208.786-3.99,241.059-44.808c11.805-14.92,21.058-33.234,28.434-52.86c2.035-21.217,1.9-36.509,1.9-36.509
			L180.939,3.147z"/>
		<path fill="#023550" d="M609.411,181.919c9.379-37.83-13.706-76.096-51.527-85.443L409.112,79.877
			c-2.383,94.593,3.912,209.232,44.785,241.544c14.46,11.439,32.074,20.484,50.969,27.732c22.025,2.205,38.065,2.068,38.065,2.068
			L609.411,181.919z"/>
	</g>
</g>
</svg>
